HIERARCHY
ROOT Hips
{
	OFFSET -0.179506 -22.333345 2.821913
	CHANNELS 6 Xposition Yposition Zposition Zrotation Yrotation Xrotation 
	JOINT LeftUpLeg
	{
		OFFSET 6.951974 -9.140623 -0.681533
		CHANNELS 3 Zrotation Yrotation Xrotation
		JOINT LeftLeg
		{
			OFFSET 3.427654 -37.519855 -0.449580
			CHANNELS 3 Zrotation Yrotation Xrotation
			JOINT LeftFoot
			{
				OFFSET -1.359570 -39.796059 -4.369333
				CHANNELS 3 Zrotation Yrotation Xrotation
				JOINT LeftToe
				{
					OFFSET 2.635814 -5.579078 11.928840
					CHANNELS 3 Zrotation Yrotation Xrotation
					End Site
					{
						OFFSET 0.000000 0.000000 0.000000
					}
				}
			}
		}
	}
	JOINT RightUpLeg
	{
		OFFSET -6.767048 -9.052170 -0.431982
		CHANNELS 3 Zrotation Yrotation Xrotation
		JOINT RightLeg
		{
			OFFSET -3.829005 -38.256897 -0.885003
			CHANNELS 3 Zrotation Yrotation Xrotation
			JOINT RightFoot
			{
				OFFSET 1.577377 -39.841461 -4.231180
				CHANNELS 3 Zrotation Yrotation Xrotation
				JOINT RightToe
				{
					OFFSET -2.537174 -4.814398 12.334795
					CHANNELS 3 Zrotation Yrotation Xrotation
					End Site
					{
						OFFSET 0.000000 0.000000 0.000000
					}
				}
			}
		}
	}
	JOINT Spine
	{
		OFFSET -0.253288 10.896323 -2.669631
		CHANNELS 3 Zrotation Yrotation Xrotation
		JOINT Spine1
		{
			OFFSET 0.548704 13.518043 0.109247
			CHANNELS 3 Zrotation Yrotation Xrotation
			JOINT Spine2
			{
				OFFSET 0.145701 5.292222 2.542457
				CHANNELS 3 Zrotation Yrotation Xrotation
				JOINT Neck
				{
					OFFSET -0.277840 21.387037 -4.285703
					CHANNELS 3 Zrotation Yrotation Xrotation
					JOINT Head
					{
						OFFSET 0.515184 6.496960 5.134897
						CHANNELS 3 Zrotation Yrotation Xrotation
						End Site
						{
							OFFSET 0.000000 0.000000 0.000000
						}
					}
				}
				JOINT LeftShoulder
				{
					OFFSET 7.884473 12.174932 -3.408961
					CHANNELS 3 Zrotation Yrotation Xrotation
					JOINT LeftArm
					{
						OFFSET 9.097692 3.046888 -0.886815
						CHANNELS 3 Zrotation Yrotation Xrotation
						JOINT LeftForeArm
						{
							OFFSET 25.961220 -1.277207 -2.745643
							CHANNELS 3 Zrotation Yrotation Xrotation
							JOINT LeftHand
							{
								OFFSET 24.923361 0.898606 -0.117091
								CHANNELS 3 Zrotation Yrotation Xrotation
								End Site
								{
									OFFSET 0.000000 0.000000 0.000000
								}
							}
						}
					}
				}
				JOINT RightShoulder
				{
					OFFSET -8.175920 11.883285 -3.861528
					CHANNELS 3 Zrotation Yrotation Xrotation
					JOINT RightArm
					{
						OFFSET -9.601238 3.255117 -0.914307
						CHANNELS 3 Zrotation Yrotation Xrotation
						JOINT RightForeArm
						{
							OFFSET -25.374195 -1.332924 -2.140099
							CHANNELS 3 Zrotation Yrotation Xrotation
							JOINT RightHand
							{
								OFFSET -25.529810 0.777228 -0.555919
								CHANNELS 3 Zrotation Yrotation Xrotation
								End Site
								{
									OFFSET 0.000000 0.000000 0.000000
								}
							}
						}
					}
				}
			}
		}
	}
}
MOTION
Frames: 9
Frame Time: 0.033333
-135.887283 21.367279 100.467560 97.396682 -15.534384 79.333547 6.181923 16.425692 -3.989220 -11.139361 17.108938 43.613245 -18.976775 -2.770425 11.130615 nan nan nan -13.753721 -11.560267 -10.490375 2.046636 -13.895843 37.426237 1.999673 1.911896 -5.231767 nan nan nan 6.727017 -3.197922 16.299437 0.226686 -3.109237 5.465265 0.010815 -2.186327 -4.251636 -13.753329 16.605616 13.007283 -11.320340 28.430508 6.432916 -11.787761 -10.852804 7.677836 -35.369899 2.723271 -13.908015 64.129692 -44.161183 -56.010106 32.128524 -26.454788 -33.751657 4.245284 18.870677 -0.009753 51.973346 24.076631 16.324266 166.155151 78.753267 177.826104 -5.702007 26.127035 -39.960896 
-136.137039 21.104506 100.615326 97.774622 -14.291494 79.551049 5.349805 16.193431 -3.184363 -10.133613 16.486097 41.180429 -19.135775 -2.074960 8.384120 nan nan nan -13.455806 -10.987467 -12.343830 2.028465 -13.733346 40.398933 4.695787 3.984406 -2.699654 nan nan nan 6.401905 -3.571295 16.483045 0.711500 -3.109741 4.777997 0.388805 -2.391076 -3.687657 -13.225859 17.032286 13.032245 -11.845945 27.827908 5.681049 -11.607492 -10.572917 7.594521 -36.861385 1.801745 -14.084701 66.794675 -43.459786 -57.631728 31.402375 -27.062203 -33.248083 4.270174 18.167570 -0.001398 52.051730 24.404412 16.182870 163.970270 78.276336 176.326660 -4.986213 26.627027 -40.137192 
-136.416855 20.844511 100.653511 97.917433 -13.051828 79.762957 4.635845 15.830624 -2.262807 -9.260199 16.205930 38.981505 -17.921863 -1.183376 4.913360 nan nan nan -13.220533 -10.029554 -14.181829 2.278917 -13.088206 43.111003 6.832045 5.809622 -0.781083 nan nan nan 6.156736 -4.001544 16.663668 1.059632 -3.062131 4.936692 0.700944 -2.479333 -3.876707 -12.545075 17.550975 12.841763 -12.243332 27.281559 5.250797 -11.184409 -10.203753 7.401118 -38.311743 1.019324 -14.382843 69.104406 -42.975302 -58.977416 30.790486 -27.709146 -33.209538 4.262328 17.611475 0.168546 52.247872 24.815255 16.139051 162.085070 77.554184 175.013199 -5.245510 27.008633 -41.209399 
-136.739868 20.561382 100.589943 97.785185 -11.778153 80.153301 4.122604 15.665553 -1.596148 -8.200383 16.429710 37.133473 -16.083144 -0.380733 1.494752 nan nan nan -12.858313 -8.843828 -16.255925 2.782968 -11.952430 45.496028 8.206770 7.480537 0.260277 nan nan nan 6.045415 -4.317706 16.718331 1.330522 -2.844810 4.973653 0.937836 -2.571347 -3.884541 -11.905150 18.022995 12.606195 -12.587549 26.737179 4.796162 -10.654298 -9.832857 7.180520 -39.625185 0.142426 -14.786468 70.992185 -42.625288 -60.042932 30.253102 -28.068610 -32.835195 4.253385 16.915983 0.167052 52.644144 25.417002 16.154662 159.297162 76.972779 172.828294 -5.480047 26.957353 -41.214219 
-137.079514 20.270048 100.428947 97.547043 -10.562129 80.663071 3.681639 15.481466 -1.107351 -7.091431 17.256121 35.328546 -14.549715 0.335722 -2.077545 nan nan nan -12.633080 -7.414494 -18.333248 3.374470 -10.956618 47.490541 9.546737 8.910270 0.462643 nan nan nan 5.913038 -4.457711 16.542998 1.569479 -2.551565 5.096434 1.167835 -2.670888 -3.833678 -11.290547 18.268345 12.607271 -12.988330 26.361876 4.016032 -10.161228 -9.634524 6.976403 -40.731814 -0.727675 -15.013503 72.820393 -42.102701 -61.294031 29.608852 -28.402107 -32.008024 4.165469 16.384070 0.063479 53.088417 25.790491 16.330306 159.161631 76.591541 172.628002 -4.943914 27.536706 -41.733904 
-137.365021 19.991076 100.167114 97.390767 -9.401502 81.174229 3.342078 15.095640 -0.596457 -5.974603 18.469093 33.371673 -13.657432 1.037793 -5.457118 nan nan nan -12.663508 -5.903304 -20.084217 3.790886 -10.400136 49.058710 10.603064 9.696414 -0.180881 nan nan nan 5.746215 -4.548384 16.181426 1.814368 -2.312752 5.394897 1.365976 -2.663400 -3.848746 -10.742373 18.347122 12.682166 -13.361280 26.077838 3.070462 -9.715754 -9.548733 6.773724 -41.659516 -1.584401 -15.119117 74.556140 -41.469915 -62.454082 28.596798 -28.970741 -31.152900 3.989254 16.200145 0.322523 53.642706 25.901140 16.567667 162.353629 76.159929 176.098714 -3.960957 28.188331 -41.719001 
-137.602905 19.703297 99.826157 97.334809 -8.229336 81.623449 3.271197 14.847421 -0.097880 -4.943201 19.624335 31.284012 -12.487730 1.745998 -8.420205 nan nan nan -12.761304 -4.565060 -21.453999 3.944357 -10.014361 50.185532 10.954919 9.847241 -1.340153 nan nan nan 5.595537 -4.665160 15.944468 2.075276 -2.080368 5.337108 1.559959 -2.601840 -3.709804 -10.221357 18.411650 12.588499 -13.480217 25.788765 2.615869 -9.362987 -9.404069 6.579907 -42.342038 -2.551772 -15.223653 75.955178 -40.993282 -63.169732 27.669172 -29.361988 -30.529467 3.864977 15.910769 0.515829 54.412440 26.004594 17.058605 164.681523 75.615081 179.336476 -3.505088 28.109561 -40.966905 
-137.830536 19.380598 99.426338 97.384637 -7.077951 82.045410 3.441896 15.014507 0.140870 -4.141586 20.358479 29.298606 -10.390417 2.274902 -10.903953 nan nan nan -12.869823 -3.553644 -22.594649 3.921966 -9.564772 51.019008 10.979518 9.655220 -2.590716 nan nan nan 5.415970 -4.823253 15.934553 2.291310 -1.854355 4.932734 1.803825 -2.558721 -3.640827 -9.692910 18.393699 12.407982 -13.331823 25.836988 2.815460 -9.192289 -9.239510 6.374625 -42.623003 -3.349903 -15.358973 76.993022 -40.893964 -63.780644 27.295178 -29.490590 -30.338284 3.752999 15.666279 0.487356 55.322761 25.933905 17.851658 166.138417 75.072145 -178.721115 -3.837032 27.821994 -40.937348 
-138.055618 19.038618 98.986710 97.715585 -5.875049 82.229483 3.853675 15.293048 0.243050 -3.214833 20.775995 27.936994 -9.191861 3.277352 -12.612824 nan nan nan -12.989174 -2.927034 -23.295804 3.558015 -9.215524 51.677248 10.776515 9.180480 -3.656625 nan nan nan 5.346246 -5.119588 16.217913 2.465301 -1.714105 4.599474 1.980005 -2.481761 -3.713737 -9.021354 18.437938 11.915789 -13.161990 26.005435 3.468227 -9.078271 -9.136674 6.034159 -42.624909 -4.143591 -15.527830 77.787066 -40.910721 -64.215887 26.814847 -29.751464 -30.417326 3.566467 15.600333 0.437072 56.261913 25.771354 18.214601 168.884629 74.748838 -175.565864 -2.761571 28.514954 -41.159198 
